<svg width="123" height="36" viewBox="0 0 123 36" fill="none" xmlns="http://www.w3.org/2000/svg">
<path d="M0.42 28V0.423999H0.456L13.884 19.468L27.636 0.423999H27.708V28H22.488V15.364L13.848 27.64H13.776L5.46 16.156V28H0.42ZM34.4487 12.268H39.4887V28H34.4487V12.268ZM34.3407 6.688C34.3407 5.944 34.6287 5.332 35.2047 4.852C35.8047 4.372 36.4407 4.132 37.1127 4.132C37.7847 4.132 38.3967 4.372 38.9487 4.852C39.5247 5.332 39.8127 5.944 39.8127 6.688C39.8127 7.432 39.5247 8.044 38.9487 8.524C38.3967 8.98 37.7847 9.208 37.1127 9.208C36.4407 9.208 35.8047 8.98 35.2047 8.524C34.6287 8.044 34.3407 7.432 34.3407 6.688Z" fill="#F78CB6"/>
<path d="M49.9352 12.268L50.3312 15.868C50.7872 14.956 51.4112 14.176 52.2032 13.528C52.9952 12.856 53.7752 12.352 54.5432 12.016C55.3112 11.656 55.8992 11.476 56.3072 11.476L56.0552 16.516C54.8792 16.372 53.8712 16.564 53.0312 17.092C52.1912 17.62 51.5432 18.316 51.0872 19.18C50.6312 20.044 50.4032 20.932 50.4032 21.844V28H45.3992V12.268H49.9352ZM66.9815 28.432C65.5175 28.432 64.1855 28.144 62.9855 27.568C61.8095 26.968 60.8735 26.056 60.1775 24.832C59.4815 23.608 59.1335 22.048 59.1335 20.152C59.1335 18.376 59.4935 16.84 60.2135 15.544C60.9335 14.248 61.8815 13.252 63.0575 12.556C64.2335 11.836 65.4815 11.476 66.8015 11.476C68.3615 11.476 69.5375 11.728 70.3295 12.232C71.1455 12.736 71.7935 13.288 72.2735 13.888L72.5975 12.268H77.2775V28H72.2375V26.056C71.9975 26.296 71.6375 26.608 71.1575 26.992C70.7015 27.376 70.1255 27.712 69.4295 28C68.7335 28.288 67.9175 28.432 66.9815 28.432ZM68.4215 24.328C70.1735 24.328 71.4455 23.536 72.2375 21.952V18.1C71.9495 17.332 71.4455 16.72 70.7255 16.264C70.0295 15.808 69.2015 15.58 68.2415 15.58C67.1615 15.58 66.2255 15.988 65.4335 16.804C64.6415 17.596 64.2455 18.628 64.2455 19.9C64.2455 20.74 64.4375 21.496 64.8215 22.168C65.2055 22.84 65.7095 23.368 66.3335 23.752C66.9815 24.136 67.6775 24.328 68.4215 24.328ZM91.3267 35.92C89.9107 35.92 88.7107 35.752 87.7267 35.416C86.7667 35.08 85.9507 34.672 85.2787 34.192C84.6067 33.712 84.0067 33.256 83.4787 32.824L86.4307 29.368C86.9827 29.872 87.6187 30.352 88.3387 30.808C89.0827 31.288 90.0547 31.528 91.2547 31.528C92.4547 31.528 93.4987 31.216 94.3867 30.592C95.2987 29.992 95.7547 29.104 95.7547 27.928V25.696C95.2987 26.44 94.5907 27.088 93.6307 27.64C92.6707 28.168 91.4227 28.432 89.8867 28.432C88.4707 28.432 87.1507 28.072 85.9267 27.352C84.7267 26.608 83.7667 25.612 83.0467 24.364C82.3267 23.092 81.9667 21.652 81.9667 20.044C81.9667 18.388 82.3507 16.924 83.1187 15.652C83.8867 14.356 84.8827 13.336 86.1067 12.592C87.3307 11.848 88.6267 11.476 89.9947 11.476C91.3627 11.476 92.5387 11.68 93.5227 12.088C94.5307 12.472 95.2747 12.94 95.7547 13.492L96.1507 12.268H100.795V28C100.795 29.536 100.363 30.892 99.4987 32.068C98.6347 33.268 97.4827 34.204 96.0427 34.876C94.6267 35.572 93.0547 35.92 91.3267 35.92ZM87.0427 19.9C87.0427 21.148 87.4627 22.204 88.3027 23.068C89.1427 23.908 90.1747 24.328 91.3987 24.328C93.4147 24.328 94.8667 23.536 95.7547 21.952V18.1C95.4187 17.332 94.8667 16.72 94.0987 16.264C93.3307 15.808 92.4307 15.58 91.3987 15.58C90.1747 15.58 89.1427 15.988 88.3027 16.804C87.4627 17.596 87.0427 18.628 87.0427 19.9ZM114.432 28.432C112.512 28.432 110.88 28.072 109.536 27.352C108.216 26.632 107.208 25.636 106.512 24.364C105.816 23.092 105.468 21.628 105.468 19.972C105.468 18.388 105.876 16.96 106.692 15.688C107.508 14.416 108.6 13.408 109.968 12.664C111.336 11.896 112.86 11.512 114.54 11.512C116.796 11.512 118.644 12.172 120.084 13.492C121.548 14.788 122.496 16.672 122.928 19.144L111.408 22.816C112.176 23.704 113.22 24.148 114.54 24.148C115.092 24.148 115.62 24.052 116.124 23.86C116.652 23.668 117.168 23.416 117.672 23.104L119.904 26.848C119.064 27.328 118.152 27.712 117.168 28C116.208 28.288 115.296 28.432 114.432 28.432ZM110.436 19.684C110.436 19.804 110.436 19.912 110.436 20.008L117.348 17.668C117.132 17.068 116.784 16.552 116.304 16.12C115.824 15.664 115.104 15.436 114.144 15.436C113.016 15.436 112.116 15.82 111.444 16.588C110.772 17.356 110.436 18.388 110.436 19.684Z" fill="#56597A"/>
</svg>
